<svg xmlns="http://www.w3.org/2000/svg" xmlns:xlink="http://www.w3.org/1999/xlink" contentStyleType="text/css" data-diagram-type="DESCRIPTION" height="531px" preserveAspectRatio="none" style="width:763px;height:531px;background:#FFFFFF;" version="1.1" viewBox="0 0 763 531" width="763px" zoomAndPan="magnify"><defs/><g><!--cluster Spring Application--><g class="cluster" data-entity="Spring Application" data-source-line="1" data-uid="ent0002" id="cluster_Spring Application"><polygon fill="none" points="16,73,26,63,746,63,746,367.89,736,377.89,16,377.89,16,73" style="stroke:#181818;stroke-width:1;"/><line style="stroke:#181818;stroke-width:1;" x1="736" x2="746" y1="73" y2="63"/><line style="stroke:#181818;stroke-width:1;" x1="16" x2="736" y1="73" y2="73"/><line style="stroke:#181818;stroke-width:1;" x1="736" x2="736" y1="73" y2="377.89"/><text fill="#000000" font-family="sans-serif" font-size="14" font-weight="bold" lengthAdjust="spacing" textLength="145.9678" x="304.0161" y="88.9951">Spring Application</text></g><g class="cluster" data-entity="..9" data-source-line="10" data-uid="ent0010" id="cluster_..9"><path d="M22.6486,445.6948 C24.6192,440.9064 28.4501,438.916 32.667,443.2197 C35.7486,437.9273 40.6037,437.1542 44.7172,441.9924 C48.2352,436.0468 53.4837,436.5771 57.2259,441.7401 C59.8698,435.189 65.7509,434.9713 69.3992,440.7484 C71.7946,435.3531 76.1933,435.0482 79.4775,439.8718 C83.6557,432.7383 88.5155,433.3527 92.6956,439.8699 C96.5869,434.5611 100.5107,434.1745 104.2673,440.0099 C108.3032,433.9994 112.4257,433.496 116.3994,440.0699 C121.3124,435.2765 126.1488,436.198 127.8464,443.1925 C130.2007,438.444 134.9983,438.5123 137.7039,442.8097 C141.9101,436.9546 147.7109,438.2388 149.874,444.8105 C153.7672,439.6622 157.8657,439.1291 162.1488,444.3488 C169.1237,448.6365 171.8616,453.257 164.4405,459.6946 C173.1847,463.639 172.6547,470.5656 166.5637,476.3959 C171.866,481.9011 171.7529,489.214 163.3002,491.8063 C169.8282,496.1081 170.8085,504.0874 162.9008,508.0339 C159.3154,512.9958 153.156,512.6819 150.527,506.9294 C147.5658,513.9371 143.4581,514.6107 138.5388,508.7542 C134.7118,514.5924 129.897,514.3825 126.0511,508.7748 C124.0466,513.2777 119.8484,514.4391 116.2419,510.6758 C112.3286,518.161 107.2694,517.7874 102.7227,511.288 C99.4985,516.7562 94.1314,517.2167 91.2238,510.9771 C88.4803,515.5932 84.9048,516.8222 81.3954,511.7545 C76.9777,516.3061 71.2052,516.4017 68.8988,509.4591 C65.8798,515.024 60.2548,515.3551 57.2335,509.4614 C53.6783,514.6153 48.9624,513.5104 46.1206,508.6684 C42.3328,515.4132 36.6725,515.9445 32.8791,508.6737 C28.1321,513.7465 24.8443,513.0851 22.2995,506.6493 C13.844,503.7701 11.7736,497.7391 19.032,491.4761 C10.8831,488.1201 9.6922,481.6564 15.9051,475.4911 C9.8302,469.5965 9.3268,463.0094 18.6048,459.7475 C13.1617,453.236 14.5711,448.3156 22.6486,445.6948" fill="none" style="stroke:#181818;stroke-width:1;"/></g><!--cluster PostgreSQL--><g class="cluster" data-entity="PostgreSQL" data-source-line="14" data-uid="ent0012" id="cluster_PostgreSQL"><path d="M404,411.89 C404,401.89 458,401.89 458,401.89 C458,401.89 512,401.89 512,411.89 L512,504.19 C512,514.19 458,514.19 458,514.19 C458,514.19 404,514.19 404,504.19 L404,411.89" fill="none" style="stroke:#181818;stroke-width:1;"/><path d="M404,411.89 C404,421.89 458,421.89 458,421.89 C458,421.89 512,421.89 512,411.89" fill="none" style="stroke:#181818;stroke-width:1;"/><text fill="#000000" font-family="sans-serif" font-size="14" font-weight="bold" lengthAdjust="spacing" textLength="92.2305" x="411.8848" y="436.8851">PostgreSQL</text></g><!--entity Dashboard Controller--><g class="entity" data-entity="Dashboard Controller" data-source-line="2" data-uid="ent0003" id="entity_Dashboard Controller"><rect fill="#F1F1F1" height="46.2969" rx="2.5" ry="2.5" style="stroke:#181818;stroke-width:0.5;" width="189.8232" x="264.09" y="103"/><rect fill="#F1F1F1" height="10" style="stroke:#181818;stroke-width:0.5;" width="15" x="433.9132" y="108"/><rect fill="#F1F1F1" height="2" style="stroke:#181818;stroke-width:0.5;" width="4" x="431.9132" y="110"/><rect fill="#F1F1F1" height="2" style="stroke:#181818;stroke-width:0.5;" width="4" x="431.9132" y="114"/><text fill="#000000" font-family="sans-serif" font-size="14" lengthAdjust="spacing" textLength="149.8232" x="279.09" y="135.9951">Dashboard Controller</text></g><!--entity Dashboard Service--><g class="entity" data-entity="Dashboard Service" data-source-line="3" data-uid="ent0004" id="entity_Dashboard Service"><rect fill="#F1F1F1" height="46.2969" rx="2.5" ry="2.5" style="stroke:#181818;stroke-width:0.5;" width="172.3916" x="272.8" y="209.3"/><rect fill="#F1F1F1" height="10" style="stroke:#181818;stroke-width:0.5;" width="15" x="425.1916" y="214.3"/><rect fill="#F1F1F1" height="2" style="stroke:#181818;stroke-width:0.5;" width="4" x="423.1916" y="216.3"/><rect fill="#F1F1F1" height="2" style="stroke:#181818;stroke-width:0.5;" width="4" x="423.1916" y="220.3"/><text fill="#000000" font-family="sans-serif" font-size="14" lengthAdjust="spacing" textLength="132.3916" x="287.8" y="242.2951">Dashboard Service</text></g><!--entity API Service--><g class="entity" data-entity="API Service" data-source-line="4" data-uid="ent0005" id="entity_API Service"><rect fill="#F1F1F1" height="46.2969" rx="2.5" ry="2.5" style="stroke:#181818;stroke-width:0.5;" width="118.3398" x="31.83" y="315.6"/><rect fill="#F1F1F1" height="10" style="stroke:#181818;stroke-width:0.5;" width="15" x="130.1698" y="320.6"/><rect fill="#F1F1F1" height="2" style="stroke:#181818;stroke-width:0.5;" width="4" x="128.1698" y="322.6"/><rect fill="#F1F1F1" height="2" style="stroke:#181818;stroke-width:0.5;" width="4" x="128.1698" y="326.6"/><text fill="#000000" font-family="sans-serif" font-size="14" lengthAdjust="spacing" textLength="78.3398" x="46.83" y="348.5951">API Service</text></g><!--entity User Repository--><g class="entity" data-entity="User Repository" data-source-line="5" data-uid="ent0006" id="entity_User Repository"><rect fill="#F1F1F1" height="46.2969" rx="2.5" ry="2.5" style="stroke:#181818;stroke-width:0.5;" width="151.4326" x="185.28" y="315.6"/><rect fill="#F1F1F1" height="10" style="stroke:#181818;stroke-width:0.5;" width="15" x="316.7126" y="320.6"/><rect fill="#F1F1F1" height="2" style="stroke:#181818;stroke-width:0.5;" width="4" x="314.7126" y="322.6"/><rect fill="#F1F1F1" height="2" style="stroke:#181818;stroke-width:0.5;" width="4" x="314.7126" y="326.6"/><text fill="#000000" font-family="sans-serif" font-size="14" lengthAdjust="spacing" textLength="111.4326" x="200.28" y="348.5951">User Repository</text></g><!--entity Activity Repository--><g class="entity" data-entity="Activity Repository" data-source-line="6" data-uid="ent0007" id="entity_Activity Repository"><rect fill="#F1F1F1" height="46.2969" rx="2.5" ry="2.5" style="stroke:#181818;stroke-width:0.5;" width="172.125" x="371.94" y="315.6"/><rect fill="#F1F1F1" height="10" style="stroke:#181818;stroke-width:0.5;" width="15" x="524.065" y="320.6"/><rect fill="#F1F1F1" height="2" style="stroke:#181818;stroke-width:0.5;" width="4" x="522.065" y="322.6"/><rect fill="#F1F1F1" height="2" style="stroke:#181818;stroke-width:0.5;" width="4" x="522.065" y="326.6"/><text fill="#000000" font-family="sans-serif" font-size="14" lengthAdjust="spacing" textLength="132.125" x="386.94" y="348.5951">Activity Repository</text></g><!--entity Club Repository--><g class="entity" data-entity="Club Repository" data-source-line="7" data-uid="ent0008" id="entity_Club Repository"><rect fill="#F1F1F1" height="46.2969" rx="2.5" ry="2.5" style="stroke:#181818;stroke-width:0.5;" width="150.9473" x="579.53" y="315.6"/><rect fill="#F1F1F1" height="10" style="stroke:#181818;stroke-width:0.5;" width="15" x="710.4773" y="320.6"/><rect fill="#F1F1F1" height="2" style="stroke:#181818;stroke-width:0.5;" width="4" x="708.4773" y="322.6"/><rect fill="#F1F1F1" height="2" style="stroke:#181818;stroke-width:0.5;" width="4" x="708.4773" y="326.6"/><text fill="#000000" font-family="sans-serif" font-size="14" lengthAdjust="spacing" textLength="110.9473" x="594.53" y="348.5951">Club Repository</text></g><!--entity External API--><g class="entity" data-entity="External API" data-source-line="11" data-uid="ent0011" id="entity_External API"><rect fill="#F1F1F1" height="46.2969" rx="2.5" ry="2.5" style="stroke:#181818;stroke-width:0.5;" width="124.9297" x="28.54" y="451.89"/><rect fill="#F1F1F1" height="10" style="stroke:#181818;stroke-width:0.5;" width="15" x="133.4697" y="456.89"/><rect fill="#F1F1F1" height="2" style="stroke:#181818;stroke-width:0.5;" width="4" x="131.4697" y="458.89"/><rect fill="#F1F1F1" height="2" style="stroke:#181818;stroke-width:0.5;" width="4" x="131.4697" y="462.89"/><text fill="#000000" font-family="sans-serif" font-size="14" lengthAdjust="spacing" textLength="84.9297" x="43.54" y="484.8851">External API</text></g><!--entity DB--><g class="entity" data-entity="DB" data-source-line="15" data-uid="ent0013" id="entity_DB"><rect fill="#F1F1F1" height="46.2969" rx="2.5" ry="2.5" style="stroke:#181818;stroke-width:0.5;" width="60.3848" x="427.81" y="451.89"/><rect fill="#F1F1F1" height="10" style="stroke:#181818;stroke-width:0.5;" width="15" x="468.1948" y="456.89"/><rect fill="#F1F1F1" height="2" style="stroke:#181818;stroke-width:0.5;" width="4" x="466.1948" y="458.89"/><rect fill="#F1F1F1" height="2" style="stroke:#181818;stroke-width:0.5;" width="4" x="466.1948" y="462.89"/><text fill="#000000" font-family="sans-serif" font-size="14" lengthAdjust="spacing" textLength="20.3848" x="442.81" y="484.8851">DB</text></g><!--entity HTTP--><g class="entity" data-entity="HTTP" data-source-line="18" data-uid="ent0014" id="entity_HTTP"><ellipse cx="359" cy="14" fill="#F1F1F1" rx="8" ry="8" style="stroke:#181818;stroke-width:0.5;"/><text fill="#000000" font-family="sans-serif" font-size="14" lengthAdjust="spacing" textLength="36.0732" x="340.9634" y="43.9951">HTTP</text></g><!--link HTTP to Dashboard Controller--><g class="link" data-entity-1="HTTP" data-entity-2="Dashboard Controller" data-source-line="18" data-uid="lnk15" id="link_HTTP_Dashboard Controller"><path d="M359,22.92 C359,39.4 359,71.88 359,96.65" fill="none" id="HTTP-to-Dashboard Controller" style="stroke:#181818;stroke-width:1;"/><polygon fill="#181818" points="359,102.65,363,93.65,359,97.65,355,93.65,359,102.65" style="stroke:#181818;stroke-width:1;"/></g><!--link Dashboard Controller to Dashboard Service--><g class="link" data-entity-1="Dashboard Controller" data-entity-2="Dashboard Service" data-source-line="19" data-uid="lnk16" id="link_Dashboard Controller_Dashboard Service"><path d="M359,149.78 C359,167.28 359,185.38 359,202.86" fill="none" id="Dashboard Controller-to-Dashboard Service" style="stroke:#181818;stroke-width:1;"/><polygon fill="#181818" points="359,208.86,363,199.86,359,203.86,355,199.86,359,208.86" style="stroke:#181818;stroke-width:1;"/></g><!--link Dashboard Service to API Service--><g class="link" data-entity-1="Dashboard Service" data-entity-2="API Service" data-source-line="20" data-uid="lnk17" id="link_Dashboard Service_API Service"><path d="M300.85,256.08 C255.9,273.57 199.5516,295.5041 154.6316,312.9841" fill="none" id="Dashboard Service-to-API Service" style="stroke:#181818;stroke-width:1;"/><polygon fill="#181818" points="149.04,315.16,158.8779,315.6239,153.6996,313.3468,155.9768,308.1685,149.04,315.16" style="stroke:#181818;stroke-width:1;"/></g><!--link Dashboard Service to User Repository--><g class="link" data-entity-1="Dashboard Service" data-entity-2="User Repository" data-source-line="21" data-uid="lnk18" id="link_Dashboard Service_User Repository"><path d="M337.74,256.08 C321.3,273.57 302.7593,293.3081 286.3293,310.7881" fill="none" id="Dashboard Service-to-User Repository" style="stroke:#181818;stroke-width:1;"/><polygon fill="#181818" points="282.22,315.16,291.2986,311.3417,285.6444,311.5167,285.4693,305.8626,282.22,315.16" style="stroke:#181818;stroke-width:1;"/></g><!--link Dashboard Service to Activity Repository--><g class="link" data-entity-1="Dashboard Service" data-entity-2="Activity Repository" data-source-line="22" data-uid="lnk19" id="link_Dashboard Service_Activity Repository"><path d="M380.48,256.08 C397.09,273.57 415.8396,293.328 432.4296,310.808" fill="none" id="Dashboard Service-to-Activity Repository" style="stroke:#181818;stroke-width:1;"/><polygon fill="#181818" points="436.56,315.16,433.2657,305.8784,433.118,311.5333,427.4631,311.3856,436.56,315.16" style="stroke:#181818;stroke-width:1;"/></g><!--link Dashboard Service to Club Repository--><g class="link" data-entity-1="Dashboard Service" data-entity-2="Club Repository" data-source-line="23" data-uid="lnk20" id="link_Dashboard Service_Club Repository"><path d="M423.23,256.08 C472.88,273.57 535.6209,295.6864 585.2409,313.1664" fill="none" id="Dashboard Service-to-Club Repository" style="stroke:#181818;stroke-width:1;"/><polygon fill="#181818" points="590.9,315.16,583.7404,308.3969,586.1841,313.4987,581.0823,315.9424,590.9,315.16" style="stroke:#181818;stroke-width:1;"/></g><!--link API Service to External API--><g class="link" data-entity-1="API Service" data-entity-2="External API" data-source-line="24" data-uid="lnk21" id="link_API Service_External API"><path d="M91,362.22 C91,387.01 91,420.67 91,445.49" fill="none" id="API Service-to-External API" style="stroke:#181818;stroke-width:1;"/><polygon fill="#181818" points="91,451.49,95,442.49,91,446.49,87,442.49,91,451.49" style="stroke:#181818;stroke-width:1;"/></g><!--link User Repository to DB--><g class="link" data-entity-1="User Repository" data-entity-2="DB" data-source-line="25" data-uid="lnk22" id="link_User Repository_DB"><path d="M293.97,362.22 C331.21,387.61 386.3728,425.2098 422.5528,449.8798" fill="none" id="User Repository-to-DB" style="stroke:#181818;stroke-width:1;"/><polygon fill="#181818" points="427.51,453.26,422.3276,444.8849,423.379,450.4432,417.8207,451.4945,427.51,453.26" style="stroke:#181818;stroke-width:1;"/></g><!--link Activity Repository to DB--><g class="link" data-entity-1="Activity Repository" data-entity-2="DB" data-source-line="26" data-uid="lnk23" id="link_Activity Repository_DB"><path d="M458,362.22 C458,387.01 458,420.67 458,445.49" fill="none" id="Activity Repository-to-DB" style="stroke:#181818;stroke-width:1;"/><polygon fill="#181818" points="458,451.49,462,442.49,458,446.49,454,442.49,458,451.49" style="stroke:#181818;stroke-width:1;"/></g><!--link Club Repository to DB--><g class="link" data-entity-1="Club Repository" data-entity-2="DB" data-source-line="27" data-uid="lnk24" id="link_Club Repository_DB"><path d="M622.03,362.22 C584.79,387.61 529.6272,425.2098 493.4472,449.8798" fill="none" id="Club Repository-to-DB" style="stroke:#181818;stroke-width:1;"/><polygon fill="#181818" points="488.49,453.26,498.1793,451.4945,492.621,450.4432,493.6724,444.8849,488.49,453.26" style="stroke:#181818;stroke-width:1;"/></g><!--SRC=[TL3B3e8m4Bpp5Hlk_889e8ac7b3mP3mKQB19qsssXKYC_ow24ilZs9dPpaDXoS5FDGbLGQYr50Mp0fKFJm_WkcNcdYEZ4c9Kbb1AJZUNI3arek0z6YO7vtqndE3CDHfXaTf1KrZH2DjEyLZMkOEzFA-GM9T3ajt3Sb9CGkVHSoMpB6UcIv-WiHNnz7JyfOvwnJxB4WY2pLgDPNXwCVPPm0QjqtfLDTjY_R-bXLRLizsSF8F67MyMvLiv-jmkUF_HKxEHUWC0]--></g></svg>